<?xml version="1.0" standalone="no"?>
<!DOCTYPE svg PUBLIC "-//W3C//DTD SVG 20010904//EN"
 "http://www.w3.org/TR/2001/REC-SVG-20010904/DTD/svg10.dtd">
<svg version="1.0" xmlns="http://www.w3.org/2000/svg"
 width="220.000000pt" height="220.000000pt" viewBox="0 0 220.000000 220.000000"
 preserveAspectRatio="xMidYMid meet">
<metadata>
Created by potrace 1.14, written by Peter Selinger 2001-2017
</metadata>
<g transform="translate(0.000000,220.000000) scale(0.100000,-0.100000)"
fill="#000000" stroke="none">
<path d="M1220 1720 c0 -5 7 -10 15 -10 8 0 15 5 15 10 0 6 -7 10 -15 10 -8 0
-15 -4 -15 -10z"/>
<path d="M1150 1706 c0 -9 5 -16 10 -16 6 0 10 4 10 9 0 6 -4 13 -10 16 -5 3
-10 -1 -10 -9z"/>
<path d="M1062 1701 c2 -7 7 -12 11 -12 12 1 9 15 -3 20 -7 2 -11 -2 -8 -8z"/>
<path d="M1000 1660 c0 -5 4 -10 9 -10 6 0 13 5 16 10 3 6 -1 10 -9 10 -9 0
-16 -4 -16 -10z"/>
<path d="M1060 1654 c0 -8 5 -12 10 -9 6 3 10 10 10 16 0 5 -4 9 -10 9 -5 0
-10 -7 -10 -16z"/>
<path d="M1210 1660 c0 -5 7 -10 16 -10 8 0 12 5 9 10 -3 6 -10 10 -16 10 -5
0 -9 -4 -9 -10z"/>
<path d="M1310 1636 c0 -9 5 -16 10 -16 6 0 10 4 10 9 0 6 -4 13 -10 16 -5 3
-10 -1 -10 -9z"/>
<path d="M1150 1625 c0 -8 5 -15 10 -15 6 0 10 7 10 15 0 8 -4 15 -10 15 -5 0
-10 -7 -10 -15z"/>
<path d="M1090 1621 c0 -20 13 -41 25 -41 10 0 11 5 2 25 -12 25 -27 34 -27
16z"/>
<path d="M920 1581 c0 -17 18 -21 24 -6 3 9 0 15 -9 15 -8 0 -15 -4 -15 -9z"/>
<path d="M1010 1575 c0 -8 5 -15 10 -15 6 0 10 7 10 15 0 8 -4 15 -10 15 -5 0
-10 -7 -10 -15z"/>
<path d="M1040 1575 c0 -8 5 -15 10 -15 6 0 10 7 10 15 0 8 -4 15 -10 15 -5 0
-10 -7 -10 -15z"/>
<path d="M1200 1580 c0 -5 7 -10 15 -10 8 0 15 5 15 10 0 6 -7 10 -15 10 -8 0
-15 -4 -15 -10z"/>
<path d="M1145 1570 c-3 -5 -1 -10 4 -10 6 0 11 -7 11 -15 0 -8 5 -15 11 -15
6 0 8 7 5 16 -3 9 -6 20 -6 25 0 12 -17 12 -25 -1z"/>
<path d="M990 1530 c0 -5 4 -10 9 -10 6 0 13 5 16 10 3 6 -1 10 -9 10 -9 0
-16 -4 -16 -10z"/>
<path d="M1080 1530 c0 -5 7 -10 15 -10 8 0 15 5 15 10 0 6 -7 10 -15 10 -8 0
-15 -4 -15 -10z"/>
<path d="M1215 1531 c-6 -11 9 -23 19 -14 9 9 7 23 -3 23 -6 0 -12 -4 -16 -9z"/>
<path d="M1027 1514 c-8 -8 1 -24 14 -24 5 0 9 7 9 15 0 15 -12 20 -23 9z"/>
<path d="M1120 1500 c0 -5 7 -10 15 -10 8 0 15 5 15 10 0 6 -7 10 -15 10 -8 0
-15 -4 -15 -10z"/>
<path d="M1260 1490 c0 -5 7 -10 15 -10 8 0 15 5 15 10 0 6 -7 10 -15 10 -8 0
-15 -4 -15 -10z"/>
<path d="M860 1480 c0 -5 5 -10 10 -10 6 0 10 5 10 10 0 6 -4 10 -10 10 -5 0
-10 -4 -10 -10z"/>
<path d="M996 1481 c-4 -7 -5 -15 -2 -18 9 -9 19 4 14 18 -4 11 -6 11 -12 0z"/>
<path d="M1170 1480 c0 -5 7 -10 16 -10 8 0 12 5 9 10 -3 6 -10 10 -16 10 -5
0 -9 -4 -9 -10z"/>
<path d="M1095 1469 c-10 -15 3 -25 16 -12 7 7 7 13 1 17 -6 3 -14 1 -17 -5z"/>
<path d="M1040 1460 c0 -5 7 -10 15 -10 8 0 15 5 15 10 0 6 -7 10 -15 10 -8 0
-15 -4 -15 -10z"/>
<path d="M1140 1461 c0 -6 5 -13 10 -16 6 -3 10 1 10 9 0 9 -4 16 -10 16 -5 0
-10 -4 -10 -9z"/>
<path d="M1210 1454 c0 -14 3 -14 15 -4 8 7 15 14 15 16 0 2 -7 4 -15 4 -8 0
-15 -7 -15 -16z"/>
<path d="M990 1435 c0 -8 5 -15 10 -15 6 0 10 7 10 15 0 8 -4 15 -10 15 -5 0
-10 -7 -10 -15z"/>
<path d="M1330 1441 c0 -6 5 -13 10 -16 6 -3 10 1 10 9 0 9 -4 16 -10 16 -5 0
-10 -4 -10 -9z"/>
<path d="M1116 1403 c1 -21 5 -48 8 -60 3 -15 0 -23 -9 -23 -8 0 -15 -13 -17
-30 -2 -23 -6 -28 -18 -20 -13 8 -13 13 2 38 16 27 15 42 -3 42 -4 0 -10 -12
-13 -26 -9 -34 -25 -50 -59 -56 -33 -6 -35 0 -4 11 22 8 21 9 -10 27 -18 11
-33 26 -34 34 0 10 -3 8 -9 -5 -12 -29 -12 -35 3 -35 7 0 13 -9 13 -20 0 -14
-6 -18 -21 -16 -11 2 -20 8 -20 14 0 7 -3 12 -7 12 -5 0 -11 0 -14 0 -4 0 -2
-6 4 -12 11 -14 6 -59 -7 -68 -5 -3 -12 -16 -16 -29 -6 -20 -4 -23 9 -18 11 5
16 1 16 -13 0 -14 -7 -20 -21 -20 -13 0 -18 4 -13 13 5 9 4 9 -5 1 -7 -6 -13
-18 -15 -25 -1 -8 -7 -24 -14 -36 -7 -12 -12 -30 -12 -41 0 -11 -7 -22 -15
-26 -8 -3 -15 -15 -15 -26 0 -12 -7 -28 -15 -36 -13 -13 -17 -29 -15 -59 1 -3
-6 -13 -15 -22 -9 -8 -14 -20 -12 -27 2 -6 -3 -16 -11 -22 -10 -7 -15 -26 -14
-50 0 -27 -2 -33 -7 -20 -7 18 -8 18 -14 2 -4 -10 -5 -22 -1 -27 3 -5 0 -9 -6
-9 -7 0 -9 -7 -6 -16 3 -8 2 -13 -2 -10 -4 2 -12 -7 -19 -20 -8 -18 -8 -24 0
-24 7 0 4 -5 -5 -11 -10 -5 -18 -18 -18 -29 0 -10 -4 -20 -9 -22 -4 -1 -12
-13 -15 -25 -8 -25 -12 -24 84 -24 150 0 152 0 146 17 -4 9 -2 13 5 8 8 -4 9
1 4 16 -5 15 -4 20 4 16 10 -7 12 -2 15 37 1 6 7 16 14 20 7 5 10 12 7 18 -4
5 -2 9 4 9 6 0 8 6 6 13 -4 9 30 11 152 10 87 -2 182 -3 211 -3 45 0 52 -3 52
-20 0 -10 6 -23 14 -27 8 -4 13 -19 12 -33 0 -14 4 -24 10 -23 6 1 12 -9 12
-23 0 -14 1 -27 4 -29 2 -2 42 -4 88 -4 47 0 100 -1 118 -1 34 -1 40 10 19 32
-8 7 -12 18 -10 25 2 6 -4 20 -14 30 -10 10 -18 24 -19 31 -3 38 -5 43 -14 37
-5 -3 -8 0 -5 7 3 7 -4 31 -15 53 -11 21 -20 45 -20 52 0 8 -6 16 -12 18 -7 3
-14 17 -14 30 -1 14 -8 32 -15 41 -7 9 -13 25 -14 36 -1 11 -7 23 -12 26 -6 4
-13 18 -14 32 -3 21 -11 26 -44 31 -38 6 -38 6 -7 8 37 1 37 2 16 42 -10 19
-21 29 -30 25 -11 -4 -14 5 -15 39 -2 69 -2 69 -29 75 -24 5 -26 10 -27 55 0
27 -5 51 -12 53 -6 2 -11 15 -11 28 0 13 -4 24 -9 24 -5 0 -16 3 -25 6 -11 4
-16 1 -16 -11 0 -10 5 -15 13 -12 8 3 14 -3 14 -14 1 -11 -5 -19 -14 -19 -9 0
-13 -6 -10 -14 4 -10 1 -13 -8 -9 -8 3 -18 -2 -21 -11 -8 -20 -34 -21 -34 -1
0 8 4 14 9 13 5 -2 9 0 10 5 1 4 -2 6 -5 5 -8 -4 -34 74 -28 84 3 4 0 8 -7 8
-10 0 -10 3 -1 12 16 16 15 28 -2 28 -9 0 -12 -11 -10 -37z m28 -139 c22 -21
20 -33 -4 -27 -11 3 -20 14 -20 24 0 23 4 24 24 3z m120 -9 c-10 -26 -34 -26
-34 -1 0 19 4 23 19 19 11 -3 17 -11 15 -18z m-191 1 c3 -8 3 -16 0 -19 -9
-10 -33 5 -33 19 0 18 26 18 33 0z m137 0 c0 -14 -24 -29 -33 -19 -3 3 -3 11
0 19 7 18 33 18 33 0z m-244 -28 c0 -9 -8 -19 -18 -21 -13 -4 -17 0 -16 17 2
26 34 30 34 4z m57 1 c-7 -24 -39 -25 -39 -1 0 10 8 18 22 18 16 1 20 -3 17
-17z m74 -11 c-3 -7 -5 -2 -5 12 0 14 2 19 5 13 2 -7 2 -19 0 -25z m-24 -17
c-6 -22 -33 -23 -33 -1 0 8 8 16 19 17 13 1 17 -4 14 -16z m107 0 c8 -17 7
-20 -10 -18 -12 1 -20 8 -20 19 0 24 17 23 30 -1z m83 -1 c3 -10 -3 -16 -14
-17 -12 -1 -19 5 -19 16 0 22 27 23 33 1z m-296 -24 c0 -8 -9 -17 -19 -19 -13
-4 -18 0 -18 14 0 12 7 19 18 19 10 0 19 -6 19 -14z m63 10 c0 -3 -4 -8 -10
-11 -5 -3 -10 -1 -10 4 0 6 5 11 10 11 6 0 10 -2 10 -4z m107 -2 c-3 -3 -12
-4 -19 -1 -8 3 -5 6 6 6 11 1 17 -2 13 -5z m183 -12 c0 -10 -7 -18 -18 -18
-10 0 -19 8 -19 18 -1 12 5 18 18 18 12 0 19 -7 19 -18z m-194 -28 c2 -10 11
-24 20 -31 11 -8 13 -13 5 -13 -7 0 -9 -5 -4 -12 4 -7 8 -20 10 -28 1 -8 8
-19 15 -25 7 -5 14 -23 16 -40 2 -16 7 -32 11 -35 5 -3 12 -20 16 -38 3 -18
10 -30 15 -27 4 2 8 -5 8 -18 0 -22 -3 -22 -114 -20 -63 1 -121 2 -129 2 -16
1 -16 21 -1 33 10 6 15 25 19 65 1 12 6 21 12 20 19 -4 17 41 -2 46 -12 3 -10
5 8 6 20 1 28 8 36 35 10 32 9 35 -11 39 -17 3 -15 5 7 6 26 1 32 12 28 48 -2
20 32 7 35 -13z m-113 -37 c13 -3 6 -5 -15 -6 -32 -1 -38 2 -38 20 0 11 5 17
10 14 6 -3 11 0 11 7 1 7 4 3 6 -9 2 -13 13 -24 26 -26z m-76 -4 c-3 -10 -5
-4 -5 12 0 17 2 24 5 18 2 -7 2 -21 0 -30z m299 16 c0 -10 -9 -20 -19 -23 -12
-3 -17 0 -14 9 3 7 1 17 -5 23 -6 6 -2 10 14 10 16 0 24 -6 24 -19z m-333 -16
c-7 -2 -19 -2 -25 0 -7 3 -2 5 12 5 14 0 19 -2 13 -5z m397 3 c0 -3 -4 -8 -10
-11 -5 -3 -10 -1 -10 4 0 6 5 11 10 11 6 0 10 -2 10 -4z m-253 -45 c1 -13 -4
-17 -16 -14 -22 6 -23 33 -1 33 8 0 16 -8 17 -19z m-85 -37 c7 1 10 1 6 -1
-15 -9 -8 -22 15 -26 13 -3 8 -5 -15 -6 -38 -1 -38 -1 -37 37 0 32 2 34 9 15
5 -13 15 -21 22 -19z m304 -12 c0 -10 -8 -19 -18 -19 -12 -1 -18 5 -18 18 0
12 7 19 18 19 10 0 18 -7 18 -18z m41 12 c-3 -3 -12 -4 -19 -1 -8 3 -5 6 6 6
11 1 17 -2 13 -5z m-477 -24 c0 -5 -5 -10 -11 -10 -5 0 -7 5 -4 10 3 6 8 10
11 10 2 0 4 -4 4 -10z m543 -7 c-7 -2 -21 -2 -30 0 -10 3 -4 5 12 5 17 0 24
-2 18 -5z m-436 -45 c-3 -7 -5 -2 -5 12 0 14 2 19 5 13 2 -7 2 -19 0 -25z
m-56 -20 c8 -15 6 -18 -10 -18 -15 0 -19 7 -19 31 1 30 5 29 29 -13z m519 0
c0 -11 -7 -18 -18 -18 -10 0 -18 7 -18 18 0 10 8 18 18 18 11 0 18 -8 18 -18z
m-600 -8 c0 -5 -5 -10 -11 -10 -5 0 -7 5 -4 10 3 6 8 10 11 10 2 0 4 -4 4 -10z
m550 0 c0 -5 -5 -10 -11 -10 -5 0 -7 5 -4 10 3 6 8 10 11 10 2 0 4 -4 4 -10z
m80 0 c0 -5 -5 -10 -11 -10 -5 0 -7 5 -4 10 3 6 8 10 11 10 2 0 4 -4 4 -10z
m-593 -6 c-3 -3 -12 -4 -19 -1 -8 3 -5 6 6 6 11 1 17 -2 13 -5z m510 -39 c0
-8 -9 -15 -19 -15 -10 0 -18 7 -18 15 0 8 8 15 18 15 10 0 19 -7 19 -15z
m-410 -57 c-2 -13 -4 -5 -4 17 -1 22 1 32 4 23 2 -10 2 -28 0 -40z m-77 22 c0
-5 -5 -10 -11 -10 -5 0 -7 5 -4 10 3 6 8 10 11 10 2 0 4 -4 4 -10z m-63 -6
c-3 -3 -12 -4 -19 -1 -8 3 -5 6 6 6 11 1 17 -2 13 -5z m216 -1 c-7 -2 -19 -2
-25 0 -7 3 -2 5 12 5 14 0 19 -2 13 -5z m60 0 c-7 -2 -21 -2 -30 0 -10 3 -4 5
12 5 17 0 24 -2 18 -5z m137 -3 c0 -5 -2 -10 -4 -10 -3 0 -8 5 -11 10 -3 6 -1
10 4 10 6 0 11 -4 11 -10z m243 3 c-7 -2 -19 -2 -25 0 -7 3 -2 5 12 5 14 0 19
-2 13 -5z m-545 -46 c-2 -9 -10 -12 -22 -8 -18 7 -18 8 0 25 18 19 29 10 22
-17z m222 5 c0 -11 -7 -18 -20 -18 -11 0 -20 1 -20 2 0 1 3 9 6 18 8 22 34 20
34 -2z m350 -2 c0 -13 -5 -18 -15 -14 -8 4 -15 12 -15 20 0 8 7 14 15 14 8 0
15 -9 15 -20z m-543 -42 c-3 -8 -6 -5 -6 6 -1 11 2 17 5 13 3 -3 4 -12 1 -19z
m80 0 c-3 -8 -6 -5 -6 6 -1 11 2 17 5 13 3 -3 4 -12 1 -19z m490 0 c-3 -8 -6
-5 -6 6 -1 11 2 17 5 13 3 -3 4 -12 1 -19z m-303 -4 c21 -20 20 -24 -3 -24
-10 0 -21 9 -24 20 -6 24 6 26 27 4z m83 -26 c-3 -8 -6 -5 -6 6 -1 11 2 17 5
13 3 -3 4 -12 1 -19z m-520 6 c-3 -3 -12 -4 -19 -1 -8 3 -5 6 6 6 11 1 17 -2
13 -5z m40 0 c-3 -3 -12 -4 -19 -1 -8 3 -5 6 6 6 11 1 17 -2 13 -5z m110 0
c-3 -3 -12 -4 -19 -1 -8 3 -5 6 6 6 11 1 17 -2 13 -5z m70 0 c-3 -3 -12 -4
-19 -1 -8 3 -5 6 6 6 11 1 17 -2 13 -5z m43 2 c0 -3 -4 -8 -10 -11 -5 -3 -10
-1 -10 4 0 6 5 11 10 11 6 0 10 -2 10 -4z m110 0 c0 -11 -19 -15 -25 -6 -3 5
1 10 9 10 9 0 16 -2 16 -4z m287 -48 c-3 -7 -5 -2 -5 12 0 14 2 19 5 13 2 -7
2 -19 0 -25z m-653 -12 c-3 -8 2 -16 13 -19 10 -3 1 -5 -19 -6 -29 -1 -36 2
-32 13 3 8 13 17 22 19 10 3 18 5 19 6 1 0 0 -5 -3 -13z m656 -26 c0 -5 -2
-10 -4 -10 -3 0 -8 5 -11 10 -3 6 -1 10 4 10 6 0 11 -4 11 -10z m80 0 c0 -5
-2 -10 -4 -10 -3 0 -8 5 -11 10 -3 6 -1 10 4 10 6 0 11 -4 11 -10z m-83 -72
c-3 -8 -6 -5 -6 6 -1 11 2 17 5 13 3 -3 4 -12 1 -19z m-782 2 c3 -5 1 -10 -4
-10 -6 0 -11 5 -11 10 0 6 2 10 4 10 3 0 8 -4 11 -10z m102 -12 c-3 -8 -6 -5
-6 6 -1 11 2 17 5 13 3 -3 4 -12 1 -19z"/>
<path d="M1070 1421 c0 -6 5 -13 10 -16 6 -3 10 1 10 9 0 9 -4 16 -10 16 -5 0
-10 -4 -10 -9z"/>
<path d="M1150 1420 c0 -5 7 -10 15 -10 8 0 15 -7 15 -15 0 -8 -7 -15 -15 -15
-8 0 -15 -4 -15 -10 0 -15 17 -12 39 6 18 16 18 17 0 35 -21 21 -39 25 -39 9z"/>
<path d="M1205 1420 c-3 -5 1 -10 9 -10 9 0 16 5 16 10 0 6 -4 10 -9 10 -6 0
-13 -4 -16 -10z"/>
<path d="M1015 1410 c-4 -6 -13 -9 -22 -8 -21 4 -38 -41 -18 -48 8 -4 15 -12
15 -20 0 -8 5 -14 10 -14 15 0 12 19 -5 36 -17 17 -20 39 -5 29 6 -4 17 -2 25
5 9 7 15 8 20 0 9 -14 38 -13 32 3 -2 6 -10 11 -16 10 -6 -2 -11 2 -11 7 0 13
-17 13 -25 0z"/>
<path d="M1240 1400 c0 -5 5 -10 10 -10 6 0 10 5 10 10 0 6 -4 10 -10 10 -5 0
-10 -4 -10 -10z"/>
<path d="M916 1381 c-4 -7 -5 -15 -2 -18 9 -9 19 4 14 18 -4 11 -6 11 -12 0z"/>
<path d="M1016 1371 c-3 -5 5 -16 19 -25 27 -18 35 -4 11 20 -17 16 -23 17
-30 5z"/>
<path d="M1080 1370 c0 -5 7 -10 16 -10 8 0 12 5 9 10 -3 6 -10 10 -16 10 -5
0 -9 -4 -9 -10z"/>
<path d="M1290 1370 c0 -5 7 -10 15 -10 8 0 15 5 15 10 0 6 -7 10 -15 10 -8 0
-15 -4 -15 -10z"/>
<path d="M1180 1335 c0 -9 6 -12 15 -9 8 4 12 10 9 15 -8 14 -24 10 -24 -6z"/>
<path d="M1015 1310 c-3 -5 1 -10 9 -10 9 0 16 5 16 10 0 6 -4 10 -9 10 -6 0
-13 -4 -16 -10z"/>
<path d="M1310 1295 c0 -8 7 -15 15 -15 8 0 15 4 15 9 0 5 -7 11 -15 15 -9 3
-15 0 -15 -9z"/>
<path d="M1290 1256 c0 -9 5 -16 10 -16 6 0 10 4 10 9 0 6 -4 13 -10 16 -5 3
-10 -1 -10 -9z"/>
<path d="M1320 1240 c0 -5 7 -10 15 -10 8 0 15 5 15 10 0 6 -7 10 -15 10 -8 0
-15 -4 -15 -10z"/>
<path d="M850 1236 c0 -2 7 -9 15 -16 12 -10 15 -10 15 4 0 9 -7 16 -15 16 -8
0 -15 -2 -15 -4z"/>
<path d="M1350 1135 c0 -8 5 -15 10 -15 6 0 10 7 10 15 0 8 -4 15 -10 15 -5 0
-10 -7 -10 -15z"/>
</g>
</svg>
